<?xml version="1.0" standalone="no"?>
<!DOCTYPE svg PUBLIC "-//W3C//DTD SVG 20010904//EN"
 "http://www.w3.org/TR/2001/REC-SVG-20010904/DTD/svg10.dtd">
<svg version="1.0" xmlns="http://www.w3.org/2000/svg"
 width="205.000000pt" height="231.000000pt" viewBox="0 0 205.000000 231.000000"
 preserveAspectRatio="xMidYMid meet">
<metadata>
Created by potrace 1.16, written by Peter Selinger 2001-2019
</metadata>
<g transform="translate(0.000000,231.000000) scale(0.100000,-0.100000)"
fill="#000" >
<path d="M371 2126 c-18 -19 -24 -42 -32 -122 -21 -221 -171 -1864 -176 -1931
-4 -49 -2 -73 5 -73 14 0 11 -33 132 1300 33 366 63 689 66 719 12 99 -53 91
730 91 453 0 692 -4 705 -10 26 -14 25 -23 -16 -480 -19 -212 -57 -639 -85
-950 -27 -311 -53 -589 -56 -618 l-6 -52 40 0 40 0 6 78 c4 42 16 168 27 279
10 111 28 305 39 430 23 272 62 698 90 988 28 294 28 293 -18 338 l-38 37
-715 0 -716 0 -22 -24z"/>
<path d="M697 1339 c-33 -25 -51 -89 -43 -153 9 -82 58 -131 106 -106 29 15
60 85 60 135 0 69 -46 145 -88 145 -5 0 -21 -9 -35 -21z"/>
<path d="M1177 1349 c-27 -16 -57 -87 -57 -134 0 -53 33 -122 64 -136 20 -10
30 -9 51 5 71 47 73 211 4 260 -27 19 -37 19 -62 5z"/>
<path d="M653 861 c18 -151 160 -274 317 -274 157 0 299 123 317 274 l6 49
-323 0 -323 0 6 -49z"/>
</g>
</svg>
